Brad Pitt, first leading film role.

Source: DVD5
 
http://www.imdb.com/title/tt0118930/

Cast: Brad Pitt, Guy Boyd, Cheryl Pollak, Milena Dravic, Gorica Popovic, Sonja Savic, Stole Arandjelovic

Director: Bozidar 'Bota' Nikolic 

Music: Vojislav Kostic (as Voki Kostic), Kornelije Kovac (as Kornell Kovach)

Filming locations: Kotor, Montenegro

Info:
-------
The Dark Side of the Sun is a 1988 American - Yugoslavian drama film starring a young Brad Pitt about a young man in search for a cure for a dreaded skin disease.
It is directed by Bozidar Nikolic. The footage for the film was shot in 1988 but due to the outbreak of Croatian War of Independence (which started in 1991) it had to be abandoned and much footage was lost. The missing pieces were eventually recovered and it was released officially in 1997, by which time Brad Pitt was a major star.

Plot:
-------
Rick is a young American who suffers of a rare skin disease which prevents him of exposing himself to any kind of light. After having tried several cures without success, his father takes him to a village where they meet a healer, who is supposed to save him. But the treatment does not work and Rick decides to forget about his illness and enjoy life feeling the sun on his skin for the first time. In the short time he has left a young American actress enters his life.

   General
-----------

      Format : AVI
      Format/Info : Audio Video Interleave
      File size : 800 MiB
      Duration : 1h 36mn
      Overall bit rate : 1 156 Kbps
      Writing application : VirtualDubMod 1.5.10.3 | www.virtualdub-fr.org || (build 2550/release)
      Writing library : VirtualDubMod build 2550/release

   Video
-------------

      Format : MPEG-4 Visual
      Format profile : Advanced Simple@L5
      Format settings, BVOP : 1
      Format settings, QPel : No
      Format settings, GMC : No warppoints
      Format settings, Matrix : Custom
      Codec ID : XVID
      Codec ID/Hint : XviD
      Duration : 1h 36mn
      Bit rate : 1 020 Kbps
      Width : 576 pixels
      Height : 432 pixels
      Display aspect ratio : 4:3
      Frame rate : 25.000 fps
      Color space : YUV
      Chroma subsampling : 4:2:0
      Bit depth : 8 bits
      Scan type : Progressive
      Compression mode : Lossy
      Bits/(Pixel*Frame) : 0.164
      Stream size : 706 MiB (88%)
      Writing library : XviD 64

   Audio
----------------

      Format : MPEG Audio
      Format version : Version 1
      Format profile : Layer 3
      Mode : Joint stereo
      Mode extension : MS Stereo
      Codec ID : 55
      Codec ID/Hint : MP3
      Duration : 1h 36mn
      Bit rate mode : Constant
      Bit rate : 128 Kbps
      Channel(s) : 2 channels
      Sampling rate : 48.0 KHz
      Compression mode : Lossy
      Stream size : 88.6 MiB (11%)
      Alignment : Aligned on interleaves
      Interleave, duration : 80 ms (2.00 video frames)
      Interleave, preload duration : 504 ms
      Writing library : LAME3.100☺┬¬
      Language : English


 